<svg width="32" height="32" viewBox="0 0 32 32" fill="none" xmlns="http://www.w3.org/2000/svg">
<path d="M21.4258 9.70713C21.7009 9.4452 22.067 9.30039 22.4469 9.30326C22.8268 9.30614 23.1907 9.45647 23.4618 9.72254C23.7329 9.98861 23.8901 10.3496 23.9001 10.7293C23.9102 11.1091 23.7723 11.4779 23.5156 11.7579L15.7226 21.504C15.5886 21.6483 15.4269 21.7642 15.2471 21.8446C15.0673 21.925 14.8732 21.9683 14.6763 21.9719C14.4793 21.9756 14.2837 21.9395 14.1011 21.8658C13.9184 21.7921 13.7525 21.6823 13.6133 21.5431L8.44529 16.3751C8.30137 16.241 8.18594 16.0793 8.10588 15.8996C8.02581 15.7199 7.98276 15.5259 7.97929 15.3292C7.97582 15.1326 8.012 14.9372 8.08568 14.7548C8.15935 14.5724 8.26901 14.4067 8.40811 14.2676C8.54721 14.1285 8.7129 14.0189 8.8953 13.9452C9.0777 13.8715 9.27307 13.8353 9.46975 13.8388C9.66644 13.8423 9.86041 13.8853 10.0401 13.9654C10.2198 14.0454 10.3815 14.1609 10.5156 14.3048L14.6054 18.3927L21.3887 9.7501L21.4258 9.70713Z" fill="white"/>
</svg>
