<svg width="32" height="32" viewBox="0 0 32 32" fill="none" xmlns="http://www.w3.org/2000/svg">
<path d="M24.7396 7.8125H6.51042C5.07218 7.8125 3.90625 8.97843 3.90625 10.4167V24.7396C3.90625 26.1778 5.07218 27.3438 6.51042 27.3438H24.7396C26.1778 27.3438 27.3438 26.1778 27.3438 24.7396V10.4167C27.3438 8.97843 26.1778 7.8125 24.7396 7.8125Z" stroke="white" stroke-width="2"/>
<path d="M3.90625 13.0208C3.90625 10.5651 3.90625 9.33854 4.66927 8.57552C5.43229 7.8125 6.65885 7.8125 9.11458 7.8125H22.1354C24.5911 7.8125 25.8177 7.8125 26.5807 8.57552C27.3438 9.33854 27.3438 10.5651 27.3438 13.0208H3.90625Z" fill="white"/>
<path d="M9.11462 3.90625V7.8125M22.1355 3.90625V7.8125" stroke="white" stroke-width="2" stroke-linecap="round"/>
</svg>
